<svg width="365" height="55" viewBox="0 0 365 55" fill="none" xmlns="http://www.w3.org/2000/svg">
<path d="M9.408 24.552H34.464V32.256H9.408V24.552ZM10.128 46.152H38.568V54H0.768V3.6H37.56V11.448H10.128V46.152ZM48.1384 54V0.575997H57.1384V54H48.1384ZM93.1429 54.72C89.3029 54.72 85.7269 54.096 82.4149 52.848C79.1509 51.552 76.2949 49.752 73.8469 47.448C71.4469 45.096 69.5749 42.336 68.2309 39.168C66.8869 36 66.2149 32.544 66.2149 28.8C66.2149 25.056 66.8869 21.6 68.2309 18.432C69.5749 15.264 71.4709 12.528 73.9189 10.224C76.3669 7.872 79.2229 6.072 82.4869 4.824C85.7509 3.528 89.3269 2.88 93.2149 2.88C97.3429 2.88 101.111 3.6 104.519 5.04C107.927 6.432 110.807 8.52 113.159 11.304L107.111 16.992C105.287 15.024 103.247 13.56 100.991 12.6C98.7349 11.592 96.2869 11.088 93.6469 11.088C91.0069 11.088 88.5829 11.52 86.3749 12.384C84.2149 13.248 82.3189 14.472 80.6869 16.056C79.1029 17.64 77.8549 19.512 76.9429 21.672C76.0789 23.832 75.6469 26.208 75.6469 28.8C75.6469 31.392 76.0789 33.768 76.9429 35.928C77.8549 38.088 79.1029 39.96 80.6869 41.544C82.3189 43.128 84.2149 44.352 86.3749 45.216C88.5829 46.08 91.0069 46.512 93.6469 46.512C96.2869 46.512 98.7349 46.032 100.991 45.072C103.247 44.064 105.287 42.552 107.111 40.536L113.159 46.296C110.807 49.032 107.927 51.12 104.519 52.56C101.111 54 97.3189 54.72 93.1429 54.72ZM131.789 54V11.52H115.085V3.6H157.853V11.52H141.149V54H131.789ZM164.877 54V3.6H185.613C190.077 3.6 193.893 4.32 197.061 5.76C200.277 7.2 202.749 9.264 204.477 11.952C206.205 14.64 207.069 17.832 207.069 21.528C207.069 25.224 206.205 28.416 204.477 31.104C202.749 33.744 200.277 35.784 197.061 37.224C193.893 38.616 190.077 39.312 185.613 39.312H170.061L174.237 35.064V54H164.877ZM197.853 54L185.109 35.712H195.117L207.933 54H197.853ZM174.237 36.072L170.061 31.608H185.181C189.309 31.608 192.405 30.72 194.469 28.944C196.581 27.168 197.637 24.696 197.637 21.528C197.637 18.312 196.581 15.84 194.469 14.112C192.405 12.384 189.309 11.52 185.181 11.52H170.061L174.237 6.912V36.072ZM217.541 54V3.6H225.245L256.853 42.408H253.037V3.6H262.325V54H254.621L223.013 15.192H226.829V54H217.541ZM299.159 54.72C295.319 54.72 291.743 54.096 288.431 52.848C285.167 51.552 282.311 49.752 279.863 47.448C277.463 45.096 275.591 42.336 274.247 39.168C272.903 36 272.231 32.544 272.231 28.8C272.231 25.056 272.903 21.6 274.247 18.432C275.591 15.264 277.487 12.528 279.935 10.224C282.383 7.872 285.239 6.072 288.503 4.824C291.767 3.528 295.343 2.88 299.231 2.88C303.359 2.88 307.127 3.6 310.535 5.04C313.943 6.432 316.823 8.52 319.175 11.304L313.127 16.992C311.303 15.024 309.263 13.56 307.007 12.6C304.751 11.592 302.303 11.088 299.663 11.088C297.023 11.088 294.599 11.52 292.391 12.384C290.231 13.248 288.335 14.472 286.703 16.056C285.119 17.64 283.871 19.512 282.959 21.672C282.095 23.832 281.663 26.208 281.663 28.8C281.663 31.392 282.095 33.768 282.959 35.928C283.871 38.088 285.119 39.96 286.703 41.544C288.335 43.128 290.231 44.352 292.391 45.216C294.599 46.08 297.023 46.512 299.663 46.512C302.303 46.512 304.751 46.032 307.007 45.072C309.263 44.064 311.303 42.552 313.127 40.536L319.175 46.296C316.823 49.032 313.943 51.12 310.535 52.56C307.127 54 303.335 54.72 299.159 54.72ZM343.697 54.72C339.761 54.72 335.993 54.168 332.393 53.064C328.793 51.912 325.937 50.448 323.825 48.672L327.065 41.4C329.081 42.984 331.577 44.304 334.553 45.36C337.529 46.416 340.577 46.944 343.697 46.944C346.337 46.944 348.473 46.656 350.105 46.08C351.737 45.504 352.937 44.736 353.705 43.776C354.473 42.768 354.857 41.64 354.857 40.392C354.857 38.856 354.305 37.632 353.201 36.72C352.097 35.76 350.657 35.016 348.881 34.488C347.153 33.912 345.209 33.384 343.049 32.904C340.937 32.424 338.801 31.872 336.641 31.248C334.529 30.576 332.585 29.736 330.809 28.728C329.081 27.672 327.665 26.28 326.561 24.552C325.457 22.824 324.905 20.616 324.905 17.928C324.905 15.192 325.625 12.696 327.065 10.44C328.553 8.136 330.785 6.312 333.761 4.968C336.785 3.576 340.601 2.88 345.209 2.88C348.233 2.88 351.233 3.264 354.209 4.032C357.185 4.8 359.777 5.904 361.985 7.344L359.033 14.616C356.777 13.272 354.449 12.288 352.049 11.664C349.649 10.992 347.345 10.656 345.137 10.656C342.545 10.656 340.433 10.968 338.801 11.592C337.217 12.216 336.041 13.032 335.273 14.04C334.553 15.048 334.193 16.2 334.193 17.496C334.193 19.032 334.721 20.28 335.777 21.24C336.881 22.152 338.297 22.872 340.025 23.4C341.801 23.928 343.769 24.456 345.929 24.984C348.089 25.464 350.225 26.016 352.337 26.64C354.497 27.264 356.441 28.08 358.169 29.088C359.945 30.096 361.361 31.464 362.417 33.192C363.521 34.92 364.073 37.104 364.073 39.744C364.073 42.432 363.329 44.928 361.841 47.232C360.401 49.488 358.169 51.312 355.145 52.704C352.121 54.048 348.305 54.72 343.697 54.72Z" fill="#FF3A3A"/>
</svg>
